# xmcd
#
# Track frame offsets: 
#        150
#        14075
#        36550
#        51847
#        86662
#        110052
#        126472
#        145191
#        163098
#        185186
#        203420
#        226235
#        246992
#        262354
#        293002
#        311159
#        326663
#        342455
#
# Disc length: 4793 seconds
#
# Revision: 0
# Processed by: cddbd v1.5.2PL0 Copyright (c) Steve Scherf et al.
# Submitted via: ExactAudioCopy v1.3
#
DISCID=2612b712
DTITLE=Various Artist - Akella Presents - vol. 149 - Electric Blues  
DTITLE=CD2
DYEAR=2018
DGENRE=Blues
TTITLE0=The Mick Pini Band - Driving Wheel
TTITLE1=The Goodmen Band - You're So Easy To Love
TTITLE2=Jim McCarty Blues Band - Hearts Not In It
TTITLE3=The Peacemakers - Judy
TTITLE4=John 'Juke' Logan - Don't Let Your Mouth Write A Check
TTITLE5=Ron Evans - Thing For You
TTITLE6=JJ Grey and Mofro - 99 Shades Of Crazy
TTITLE7=Van Morrison - Roll with the Punches
TTITLE8=Alex Lopez - Redeem Me
TTITLE9=Thermal Blues Express - I Ain't Yours No More
TTITLE10=Sunnyland Bluesband - Little By Little
TTITLE11=Jimmy and The Soulcats - I've Been Used
TTITLE12=QSP - Mend A Broken Heart
TTITLE13=Gregor Hilden Organ Trio - Move On Down The Line
TTITLE14=Studebaker John - A Fool Just Like Me
TTITLE15=Mudcats Blues Trio - Where The Cold Winds Blow
TTITLE16=Paul Orta - Wasted Days and Wasted Nights
TTITLE17=Henrik Freischlader - Parisienne Walkways
EXTD=
EXTT0=
EXTT1=
EXTT2=
EXTT3=
EXTT4=
EXTT5=
EXTT6=
EXTT7=
EXTT8=
EXTT9=
EXTT10=
EXTT11=
EXTT12=
EXTT13=
EXTT14=
EXTT15=
EXTT16=
EXTT17=
PLAYORDER=
